<svg xmlns="http://www.w3.org/2000/svg" width="101" height="131" fill="none">
  <path fill="#fff"
    d="M52.643 48.779c-.754 0-1.346.266-1.804.825-.458.559-.7 1.278-.7 2.156 0 .905.242 1.624.7 2.183.458.56 1.077.825 1.804.825 1.132 0 1.966-.479 2.451-1.41l3.043 1.73c-.484.958-1.239 1.677-2.235 2.21-.996.532-2.154.771-3.474.771-1.293 0-2.397-.266-3.393-.772a5.452 5.452 0 0 1-2.263-2.21c-.538-.958-.808-2.049-.808-3.3 0-1.278.27-2.396.808-3.354.539-.959 1.293-1.73 2.29-2.236.969-.533 2.1-.8 3.393-.8 1.239 0 2.37.267 3.34.773a5.49 5.49 0 0 1 2.262 2.156l-2.99 1.73c-.565-.851-1.373-1.277-2.424-1.277ZM63.415 40.447c.404.4.62.932.62 1.57 0 .64-.216 1.145-.62 1.571-.404.4-.942.613-1.562.613-.646 0-1.158-.213-1.562-.613a2.177 2.177 0 0 1-.62-1.57c0-.64.216-1.172.62-1.57.404-.4.943-.613 1.562-.613.647 0 1.158.213 1.562.612Zm-3.581 5.111h4.093v12.379h-4.093V45.558ZM66.243 45.558h4.228l2.64 8.599 2.639-8.599h4.12l-4.713 12.379H70.93l-4.686-12.379ZM85.742 40.447c.404.4.62.932.62 1.57 0 .64-.216 1.145-.62 1.571-.404.4-.943.613-1.562.613-.646 0-1.158-.213-1.562-.613a2.177 2.177 0 0 1-.62-1.57c0-.64.216-1.172.62-1.57.404-.4.943-.613 1.562-.613.62 0 1.131.213 1.562.612Zm-3.582 5.111h4.094v12.379H82.16V45.558ZM95.114 48.779c-.755 0-1.347.266-1.805.825-.458.559-.7 1.278-.7 2.156 0 .905.242 1.624.7 2.183.458.56 1.077.825 1.805.825 1.13 0 1.966-.479 2.45-1.41l3.044 1.73c-.485.958-1.24 1.677-2.236 2.21-.996.532-2.154.771-3.474.771-1.293 0-2.397-.266-3.393-.772a5.452 5.452 0 0 1-2.262-2.21c-.54-.958-.808-2.049-.808-3.3 0-1.278.269-2.396.808-3.354.538-.959 1.292-1.73 2.289-2.236.97-.533 2.1-.8 3.393-.8 1.239 0 2.37.267 3.34.773a5.491 5.491 0 0 1 2.262 2.156l-2.99 1.73c-.538-.851-1.373-1.277-2.423-1.277ZM59.645 61.264v16.69h-4.12v-1.596a4.135 4.135 0 0 1-1.589 1.304c-.62.293-1.32.453-2.127.453-1.159 0-2.182-.266-3.07-.799-.89-.532-1.563-1.278-2.047-2.263-.485-.958-.728-2.076-.728-3.354 0-1.251.243-2.343.727-3.3a5.386 5.386 0 0 1 2.02-2.21c.862-.533 1.859-.772 3.017-.772.808 0 1.535.16 2.154.452.647.293 1.185.746 1.643 1.305v-5.937h4.12v.027Zm-4.847 12.804c.485-.559.754-1.304.754-2.236 0-.931-.242-1.677-.754-2.236-.485-.559-1.131-.852-1.94-.852-.807 0-1.453.293-1.965.852-.512.56-.754 1.304-.754 2.236 0 .932.242 1.65.754 2.236.511.586 1.158.852 1.966.852.78 0 1.427-.293 1.939-.852ZM72.195 66.588c.97.799 1.454 1.89 1.454 3.301v8.066h-4.04v-1.384c-.835 1.065-2.1 1.57-3.77 1.57-1.32 0-2.37-.346-3.151-1.064-.754-.719-1.158-1.65-1.158-2.795 0-1.172.404-2.103 1.239-2.742.834-.666 2.02-.985 3.555-1.012h3.258v-.133c0-.586-.215-1.065-.62-1.384-.403-.32-.996-.48-1.777-.48-.511 0-1.104.08-1.777.24-.646.16-1.32.4-1.993.746l-1.131-2.742c1.023-.453 1.993-.799 2.935-1.012.943-.213 1.913-.32 2.909-.32 1.778-.026 3.124.373 4.067 1.145Zm-3.474 8.333c.457-.293.754-.693.888-1.145V72.71h-2.45c-1.159 0-1.751.426-1.751 1.278 0 .426.162.772.458 1.011.296.24.727.373 1.239.373.619 0 1.158-.133 1.615-.453ZM84.852 77.316c-.458.266-.996.453-1.589.612a8.398 8.398 0 0 1-1.831.213c-1.24 0-2.236-.346-2.99-1.065-.754-.692-1.158-1.677-1.158-2.901V68.85h-1.75v-2.716h1.75v-4.898h4.094v4.898h3.232v2.716h-3.232v4.685c0 .878.35 1.304 1.077 1.304.458 0 .97-.133 1.589-.426l.808 2.902ZM97.403 66.588c.97.799 1.454 1.89 1.454 3.301v8.066H94.79v-1.384c-.835 1.065-2.1 1.57-3.77 1.57-1.32 0-2.37-.346-3.151-1.064-.754-.719-1.158-1.65-1.158-2.795 0-1.172.404-2.103 1.239-2.742.835-.666 2.02-.985 3.555-1.012h3.258v-.133c0-.586-.215-1.065-.619-1.384-.404-.32-.996-.48-1.778-.48-.511 0-1.104.08-1.777.24-.646.16-1.32.4-1.993.746l-1.131-2.742c1.023-.453 1.993-.799 2.935-1.012.943-.213 1.913-.32 2.91-.32 1.804-.026 3.15.373 4.093 1.145Zm-3.474 8.333c.457-.293.754-.693.888-1.145V72.71h-2.45c-1.159 0-1.751.426-1.751 1.278 0 .426.162.772.458 1.011.296.24.727.373 1.239.373.62 0 1.158-.133 1.616-.453ZM52.051 82.587h-4.794V99.57h4.794V82.587ZM64.924 88.204c.97.798 1.454 1.89 1.454 3.3v8.066h-4.04v-1.384c-.835 1.065-2.1 1.57-3.77 1.57-1.32 0-2.37-.345-3.151-1.064-.754-.719-1.158-1.65-1.158-2.795 0-1.171.404-2.103 1.239-2.742.835-.665 2.02-.985 3.555-1.012h3.258v-.133c0-.585-.215-1.065-.62-1.384-.403-.32-.996-.48-1.777-.48-.538 0-1.104.08-1.777.24-.646.16-1.32.4-1.993.746l-1.131-2.742c1.023-.453 1.993-.799 2.935-1.012.943-.213 1.913-.32 2.909-.32 1.75-.052 3.097.347 4.067 1.146Zm-3.475 8.332c.458-.293.755-.692.89-1.145v-1.065h-2.451c-1.159 0-1.751.426-1.751 1.278 0 .426.161.772.458 1.012.296.24.727.372 1.239.372.619 0 1.158-.16 1.615-.452ZM80.355 87.938c.862.532 1.562 1.251 2.02 2.236.485.958.727 2.076.727 3.327 0 1.252-.242 2.343-.7 3.275-.458.932-1.131 1.677-1.993 2.183-.862.505-1.858.772-2.99.772-.78 0-1.48-.16-2.127-.453A4.195 4.195 0 0 1 73.676 98v1.598h-4.094V82.614h4.094v6.309c.889-1.145 2.128-1.73 3.663-1.73 1.13-.027 2.127.213 3.016.745Zm-2.1 7.666c.484-.558.754-1.304.754-2.209s-.243-1.65-.755-2.21a2.527 2.527 0 0 0-1.939-.851c-.78 0-1.427.292-1.912.852-.485.559-.727 1.304-.727 2.21 0 .904.242 1.65.727 2.209.485.559 1.131.851 1.912.851.781-.026 1.428-.292 1.94-.852ZM19.41 72.233c-1.832-1.57-4.202-2.343-7.11-2.343-2.91 0-5.28.772-7.11 2.343-1.832 1.57-2.748 3.593-2.748 6.096 0 2.502.916 4.525 2.747 6.07 1.832 1.543 4.202 2.315 7.11 2.315 2.963 0 5.36-.772 7.164-2.316 1.804-1.544 2.693-3.567 2.693-6.07 0-2.502-.915-4.525-2.747-6.095ZM32.553 24.475c3.34 1.81 5.978 3.38 7.944 6.468V5.814c0-4.658-5.278-7.426-9.183-4.79-5.952 4.019-11.715 11.526-16.698 20.736 1.643-.266 3.367-.372 5.171-.346 4.794.027 9.049 1.065 12.766 3.062ZM40.498 61.317c-1.912 3.168-4.605 4.792-8.08 6.549-.376.186-.511.24-.888.426.942 2.395 1.131 4.712 1.131 7.374 0 2.502-.485 4.738-1.454 6.735-.97 1.996-1.212 2.848-3.017 4.232h12.335M33.44 130.877c3.636.746 7.084-1.996 7.084-5.696v-5.431H13.107c5.898 5.83 13.008 9.637 20.334 11.127ZM40.497 99.544H.935a57.77 57.77 0 0 0 2.504 6.469h37.058v-6.47ZM29.616 39.302c-2.208-3.301-5.332-4.978-9.345-5.005-2.828-.027-5.17 1.012-6.948 3.141-1.805 2.13-2.72 4.872-2.747 8.253-.027 3.46.808 6.229 2.558 8.358 1.05 1.278 2.316 2.183 3.798 2.716 0 0 1.454.559 2.962.532h.135c4.39.053 7.54-1.704 9.48-5.244l11.015 6.389v-25.21l-10.908 6.07Z" />
</svg>