<svg xmlns="http://www.w3.org/2000/svg" width="70" height="92" fill="none">
  <path fill="#000"
    d="M36.315 34.257c-.53 0-.946.187-1.268.58-.321.392-.491.897-.491 1.514 0 .636.17 1.14.491 1.533.322.393.757.58 1.268.58.794 0 1.38-.337 1.72-.991l2.138 1.215c-.34.673-.87 1.178-1.57 1.552-.7.374-1.513.542-2.44.542-.907 0-1.683-.187-2.383-.542a3.829 3.829 0 0 1-1.589-1.552c-.378-.673-.567-1.44-.567-2.318 0-.898.19-1.683.567-2.356.379-.673.908-1.215 1.608-1.57.681-.374 1.475-.561 2.383-.561.87 0 1.665.187 2.346.542.68.355 1.21.86 1.588 1.514l-2.1 1.216c-.396-.599-.964-.898-1.701-.898ZM43.88 28.406c.284.28.435.654.435 1.103 0 .448-.151.804-.435 1.103-.284.28-.662.43-1.097.43-.454 0-.813-.15-1.097-.43a1.53 1.53 0 0 1-.435-1.103c0-.449.151-.823.435-1.103.284-.28.662-.43 1.097-.43.454 0 .813.15 1.097.43Zm-2.516 3.59h2.875v8.693h-2.875v-8.694ZM45.866 31.995h2.97l1.853 6.039 1.853-6.039h2.894l-3.31 8.694h-2.97l-3.29-8.694ZM59.56 28.406c.283.28.435.654.435 1.103 0 .448-.151.804-.435 1.103-.284.28-.662.43-1.097.43-.454 0-.813-.15-1.097-.43a1.53 1.53 0 0 1-.435-1.103c0-.449.151-.823.435-1.103.284-.28.662-.43 1.097-.43.435 0 .794.15 1.097.43Zm-2.516 3.59h2.875v8.693h-2.875v-8.694ZM66.141 34.257c-.53 0-.945.187-1.267.58-.321.392-.491.897-.491 1.514 0 .636.17 1.14.491 1.533.322.393.757.58 1.267.58.795 0 1.381-.337 1.722-.991L70 38.688c-.34.673-.87 1.178-1.57 1.552-.7.374-1.513.542-2.44.542-.908 0-1.683-.187-2.383-.542a3.829 3.829 0 0 1-1.589-1.552c-.378-.673-.567-1.44-.567-2.318 0-.898.19-1.683.567-2.356.379-.673.908-1.215 1.608-1.57.68-.374 1.475-.561 2.383-.561.87 0 1.665.187 2.346.542.68.355 1.21.86 1.588 1.514l-2.1 1.216c-.377-.599-.964-.898-1.702-.898ZM41.232 43.025v11.722h-2.894v-1.121c-.302.411-.68.71-1.116.916a3.439 3.439 0 0 1-1.494.318c-.813 0-1.532-.187-2.156-.561-.624-.374-1.097-.898-1.437-1.59-.34-.672-.511-1.458-.511-2.355 0-.879.17-1.645.51-2.318a3.783 3.783 0 0 1 1.42-1.552c.604-.374 1.304-.542 2.118-.542.567 0 1.078.112 1.513.318.454.205.832.523 1.153.916v-4.17h2.894v.02Zm-3.404 8.993c.34-.393.53-.916.53-1.57 0-.655-.17-1.178-.53-1.57-.34-.394-.795-.6-1.362-.6-.568 0-1.021.206-1.38.6-.36.392-.53.915-.53 1.57 0 .654.17 1.159.53 1.57.359.411.813.598 1.38.598.548 0 1.002-.206 1.362-.598ZM50.045 46.765c.681.56 1.022 1.327 1.022 2.318v5.665H48.23v-.973c-.586.748-1.475 1.103-2.648 1.103-.927 0-1.665-.243-2.213-.747-.53-.505-.813-1.16-.813-1.963 0-.823.283-1.477.87-1.926.586-.467 1.418-.692 2.496-.71h2.289v-.094c0-.411-.151-.748-.435-.972-.284-.224-.7-.337-1.248-.337-.36 0-.776.056-1.249.169-.454.112-.927.28-1.4.523l-.794-1.925c.719-.318 1.4-.561 2.062-.71a9.237 9.237 0 0 1 2.043-.225c1.248-.019 2.194.261 2.855.804Zm-2.44 5.851c.322-.205.53-.486.625-.804v-.747h-1.721c-.814 0-1.23.299-1.23.897 0 .3.114.542.322.71.208.169.51.262.87.262.435 0 .813-.093 1.135-.318ZM58.935 54.299c-.322.187-.7.318-1.116.43-.416.093-.851.15-1.286.15-.87 0-1.57-.244-2.1-.748-.529-.487-.813-1.178-.813-2.038v-3.74h-1.23v-1.906h1.23v-3.44h2.875v3.44h2.27v1.907h-2.27v3.29c0 .617.246.916.757.916.321 0 .68-.093 1.116-.3l.567 2.039ZM67.75 46.765c.68.56 1.02 1.327 1.02 2.318v5.665h-2.855v-.973c-.587.748-1.476 1.103-2.648 1.103-.927 0-1.665-.243-2.213-.747-.53-.505-.814-1.16-.814-1.963 0-.823.284-1.477.87-1.926.587-.467 1.419-.692 2.497-.71h2.289v-.094c0-.411-.152-.748-.435-.972-.284-.224-.7-.337-1.249-.337a5.5 5.5 0 0 0-1.248.169 6.44 6.44 0 0 0-1.4.523l-.794-1.925c.719-.318 1.4-.561 2.061-.71a9.239 9.239 0 0 1 2.043-.225c1.267-.019 2.213.261 2.875.804Zm-2.44 5.851c.32-.205.529-.486.623-.804v-.747h-1.72c-.814 0-1.23.299-1.23.897 0 .3.113.542.321.71.208.169.511.262.87.262.435 0 .814-.093 1.135-.318ZM35.899 58h-3.367v11.928H35.9V58ZM44.94 61.945c.68.561 1.02 1.328 1.02 2.318v5.665h-2.837v-.972c-.586.748-1.475 1.103-2.648 1.103-.926 0-1.664-.243-2.212-.748-.53-.505-.814-1.159-.814-1.963 0-.822.284-1.477.87-1.925.587-.468 1.419-.692 2.497-.71h2.289v-.094c0-.412-.152-.748-.435-.972-.284-.225-.7-.337-1.249-.337-.378 0-.775.056-1.248.168-.454.112-.927.28-1.4.524l-.794-1.926c.719-.318 1.4-.56 2.062-.71a9.244 9.244 0 0 1 2.042-.225c1.23-.037 2.175.243 2.856.804Zm-2.44 5.852c.32-.206.529-.486.623-.804v-.748h-1.72c-.814 0-1.23.3-1.23.898 0 .299.113.542.322.71.208.168.51.262.87.262.434 0 .813-.112 1.134-.318ZM55.777 61.758a3.603 3.603 0 0 1 1.418 1.57c.34.674.511 1.459.511 2.338 0 .878-.17 1.645-.492 2.3a3.57 3.57 0 0 1-1.4 1.532c-.605.355-1.304.542-2.099.542-.548 0-1.04-.112-1.494-.318a2.947 2.947 0 0 1-1.135-.897v1.122h-2.875V58.019h2.875v4.431c.624-.804 1.494-1.215 2.572-1.215.795-.019 1.495.15 2.119.523ZM54.3 67.142c.341-.392.53-.916.53-1.551 0-.636-.17-1.16-.53-1.552a1.775 1.775 0 0 0-1.361-.598c-.549 0-1.003.206-1.343.598-.34.393-.51.916-.51 1.552 0 .635.17 1.159.51 1.552.34.392.794.598 1.343.598.548-.019 1.002-.206 1.361-.599ZM12.975 50.728c-1.286-1.103-2.95-1.645-4.993-1.645s-3.707.542-4.994 1.645C1.702 51.831 1.06 53.252 1.06 55.01c0 1.758.643 3.178 1.93 4.263 1.286 1.084 2.95 1.626 4.993 1.626 2.08 0 3.763-.542 5.03-1.626 1.268-1.084 1.892-2.505 1.892-4.263 0-1.757-.643-3.178-1.93-4.28ZM22.205 17.189c2.345 1.27 4.199 2.374 5.58 4.542V4.083c0-3.272-3.708-5.216-6.45-3.365-4.18 2.823-8.228 8.095-11.727 14.563a20.79 20.79 0 0 1 3.631-.242c3.367.018 6.355.747 8.966 2.15ZM27.785 43.063c-1.343 2.225-3.235 3.365-5.674 4.599-.265.13-.36.168-.625.3.662 1.682.795 3.308.795 5.178 0 1.757-.34 3.328-1.021 4.73-.681 1.402-.852 2-2.119 2.972h8.663M22.829 91.914c2.553.523 4.974-1.402 4.974-4.001v-3.814H8.55c4.142 4.094 9.135 6.768 14.28 7.815ZM27.784 69.91H0a40.575 40.575 0 0 0 1.759 4.542h26.025V69.91ZM20.143 27.602c-1.55-2.318-3.745-3.496-6.563-3.515-1.986-.019-3.631.71-4.88 2.206-1.267 1.496-1.91 3.421-1.929 5.796-.019 2.43.567 4.374 1.797 5.87.738.897 1.627 1.533 2.667 1.907 0 0 1.021.392 2.08.374h.095c3.083.037 5.296-1.197 6.657-3.683l7.736 4.487V23.339l-7.66 4.263Z" />
</svg>