<svg xmlns="http://www.w3.org/2000/svg" width="34" height="34" fill="none">
  <g clip-path="url(#a)">
    <path fill="#fff"
      d="M17 2.833C9.173 2.833 2.834 9.173 2.834 17A14.158 14.158 0 0 0 12.52 30.44c.708.123.973-.301.973-.674 0-.336-.018-1.45-.018-2.638-3.56.656-4.48-.867-4.763-1.665-.16-.407-.85-1.664-1.452-2.001-.496-.265-1.205-.921-.019-.938 1.116-.018 1.913 1.027 2.179 1.452 1.275 2.142 3.312 1.54 4.125 1.169.125-.921.496-1.54.904-1.894-3.152-.354-6.446-1.577-6.446-6.996 0-1.541.549-2.815 1.452-3.808-.141-.354-.637-1.806.142-3.754 0 0 1.186-.371 3.896 1.454a13.147 13.147 0 0 1 3.542-.48c1.204 0 2.408.16 3.541.478 2.709-1.842 3.896-1.45 3.896-1.45.78 1.947.283 3.4.142 3.754.902.991 1.452 2.248 1.452 3.806 0 5.437-3.31 6.642-6.463 6.996.513.442.956 1.292.956 2.62 0 1.895-.018 3.418-.018 3.896 0 .372.266.813.974.672A14.19 14.19 0 0 0 31.166 17c0-7.827-6.339-14.167-14.166-14.167Z" />
  </g>
  <defs>
    <clipPath id="a">
      <path fill="#fff" d="M0 0h34v34H0z" />
    </clipPath>
  </defs>
</svg>