<svg xmlns="http://www.w3.org/2000/svg" width="34" height="34" fill="none">
  <g clip-path="url(#a)">
    <path fill="#fff"
      d="M25.975 25.98h-3.776v-5.917c0-1.411-.028-3.227-1.969-3.227-1.968 0-2.268 1.535-2.268 3.123v6.021h-3.777V13.812h3.627v1.658h.05c.507-.955 1.739-1.965 3.58-1.965 3.826 0 4.534 2.519 4.534 5.796v6.68h-.001ZM9.92 12.148a2.189 2.189 0 0 1-2.193-2.194 2.193 2.193 0 1 1 2.191 2.194h.002Zm1.893 13.832H8.027V13.812h3.788V25.98h-.001ZM27.866 4.25H6.133c-1.043 0-1.883.822-1.883 1.837v21.826c0 1.015.841 1.837 1.881 1.837h21.73c1.039 0 1.889-.822 1.889-1.837V6.087c0-1.015-.85-1.837-1.89-1.837h.006Z" />
  </g>
  <defs>
    <clipPath id="a">
      <path fill="#fff" d="M0 0h34v34H0z" />
    </clipPath>
  </defs>
</svg>