<svg xmlns="http://www.w3.org/2000/svg" width="34" height="34" fill="none">
  <g clip-path="url(#a)">
    <path fill="#fff"
      d="M31.396 8.013a11.876 11.876 0 0 1-3.403.932A5.944 5.944 0 0 0 30.6 5.667a11.84 11.84 0 0 1-3.763 1.437 5.924 5.924 0 0 0-10.095 5.404A16.82 16.82 0 0 1 4.53 6.317a5.905 5.905 0 0 0-.802 2.98 5.924 5.924 0 0 0 2.635 4.93 5.905 5.905 0 0 1-2.683-.74v.073a5.929 5.929 0 0 0 4.753 5.81 5.965 5.965 0 0 1-2.677.102 5.929 5.929 0 0 0 5.535 4.115 11.891 11.891 0 0 1-8.771 2.454 16.76 16.76 0 0 0 9.08 2.663c10.9 0 16.86-9.028 16.86-16.858 0-.255-.008-.513-.02-.765a12.04 12.04 0 0 0 2.957-3.067l-.001-.001Z" />
  </g>
  <defs>
    <clipPath id="a">
      <path fill="#fff" d="M0 0h34v34H0z" />
    </clipPath>
  </defs>
</svg>