<svg xmlns="http://www.w3.org/2000/svg" width="425" height="246" viewBox="0 0 425 246" fill="none">
  <path
    d="M335.653 237.106C195.563 257.606 56.7987 217.106 18.5635 152.106C7.59299 133.456 1.88822 109.03 4.72052 87.9364C8.36372 60.8041 29.4153 39.9177 52.6259 27.2746C89.5863 7.1417 135.919 4.62202 177.07 4.05609C231.822 3.30311 271.064 10.1059 324.564 25.6059C348.564 32.5591 371.609 44.239 388.064 60.1059C398.407 70.0799 408.065 81.1059 415.564 99.6059C423.063 118.106 420.87 132.499 419.563 147.106C418.555 158.375 414.661 167.209 408.064 177.106C396.232 194.853 356.563 223.106 285.063 230.106"
    stroke="#1A7F8F" stroke-width="7" stroke-linecap="round" />
</svg>