<svg width="1440" height="720" viewBox="0 0 1440 720" fill="none" xmlns="http://www.w3.org/2000/svg">
<rect width="1440" height="720" fill="#FCF0D3"/>
<path d="M411.96 339.976L409.08 357.928H423.096L425.976 339.976H411.96ZM430.2 313.96H436.632L433.464 333.448H443.256V339.976H432.504L429.528 357.928H439.992V364.456H428.664L425.304 385H418.776L422.04 364.456H408.12L404.76 385H398.328L401.496 364.456H390.36V357.928H402.648L405.528 339.976H393.72V333.448H406.68L409.752 313.96H416.184L413.016 333.544H427.128L430.2 313.96ZM473.891 324.52C478.179 324.52 482.147 325.128 485.795 326.344C489.443 327.56 492.579 329.384 495.203 331.816C497.891 334.184 499.971 337.192 501.443 340.84C502.979 344.424 503.747 348.616 503.747 353.416C503.747 359.24 502.851 364.168 501.059 368.2C499.267 372.232 496.835 375.496 493.763 377.992C490.755 380.488 487.235 382.28 483.203 383.368C479.235 384.456 475.011 385 470.531 385H454.211V324.52H473.891ZM463.043 377.704H469.667C472.739 377.704 475.747 377.384 478.691 376.744C481.635 376.04 484.227 374.792 486.467 373C488.771 371.144 490.627 368.648 492.035 365.512C493.443 362.376 494.147 358.344 494.147 353.416C494.147 349.96 493.635 346.888 492.611 344.2C491.587 341.512 490.115 339.272 488.195 337.48C486.275 335.624 483.939 334.216 481.187 333.256C478.499 332.296 475.491 331.816 472.163 331.816H463.043V377.704ZM553.053 363.4H520.701V363.784C520.701 368.776 522.045 372.616 524.733 375.304C527.485 377.992 531.197 379.336 535.869 379.336C538.301 379.336 540.445 379.144 542.301 378.76C544.221 378.376 546.301 377.736 548.541 376.84L550.269 383.08C548.413 383.912 546.205 384.584 543.645 385.096C541.149 385.608 538.461 385.864 535.581 385.864C532.317 385.864 529.245 385.416 526.365 384.52C523.549 383.624 521.053 382.248 518.877 380.392C516.701 378.472 514.973 376.04 513.693 373.096C512.477 370.152 511.869 366.632 511.869 362.536C511.869 359.016 512.381 355.816 513.405 352.936C514.493 350.056 515.997 347.624 517.917 345.64C519.837 343.592 522.141 342.024 524.829 340.936C527.581 339.784 530.653 339.208 534.045 339.208C536.925 339.208 539.517 339.688 541.821 340.648C544.189 341.608 546.205 342.952 547.869 344.68C549.533 346.408 550.813 348.488 551.709 350.92C552.605 353.352 553.053 356.04 553.053 358.984V363.4ZM544.317 357.352C544.317 355.688 544.093 354.152 543.645 352.744C543.261 351.272 542.621 349.992 541.725 348.904C540.893 347.816 539.805 346.952 538.461 346.312C537.117 345.672 535.485 345.352 533.565 345.352C530.045 345.352 527.165 346.472 524.925 348.712C522.749 350.952 521.405 353.896 520.893 357.544L544.317 357.352ZM588.372 348.328C586.26 347.304 584.34 346.6 582.612 346.216C580.884 345.832 579.156 345.64 577.428 345.64C574.356 345.64 572.084 346.216 570.612 347.368C569.14 348.456 568.404 349.928 568.404 351.784C568.404 353.128 568.916 354.312 569.94 355.336C570.964 356.296 573.108 357.256 576.372 358.216L579.252 359.08C583.54 360.36 586.772 362.024 588.948 364.072C591.188 366.056 592.308 368.776 592.308 372.232C592.308 376.328 590.772 379.624 587.7 382.12C584.692 384.616 580.468 385.864 575.028 385.864C572.148 385.864 569.364 385.608 566.676 385.096C564.052 384.584 561.78 383.88 559.86 382.984L561.876 376.36C563.732 377.256 565.748 377.992 567.924 378.568C570.1 379.08 572.308 379.336 574.548 379.336C577.428 379.336 579.7 378.824 581.364 377.8C583.092 376.776 583.956 375.08 583.956 372.712C583.956 370.664 583.22 369.224 581.748 368.392C580.276 367.496 578.164 366.632 575.412 365.8L572.436 364.84C568.276 363.496 565.172 361.832 563.124 359.848C561.14 357.8 560.148 355.176 560.148 351.976C560.148 350.056 560.564 348.296 561.396 346.696C562.228 345.096 563.348 343.752 564.756 342.664C566.228 341.576 567.956 340.744 569.94 340.168C571.924 339.528 574.1 339.208 576.468 339.208C578.708 339.208 581.012 339.432 583.38 339.88C585.812 340.264 588.116 340.936 590.292 341.896L588.372 348.328ZM603.466 385V339.88H611.914V385H603.466ZM607.69 328.264C606.218 328.264 604.938 327.784 603.85 326.824C602.826 325.8 602.314 324.552 602.314 323.08C602.314 321.608 602.826 320.36 603.85 319.336C604.938 318.312 606.218 317.8 607.69 317.8C609.098 317.8 610.346 318.312 611.434 319.336C612.522 320.36 613.066 321.608 613.066 323.08C613.066 324.552 612.522 325.8 611.434 326.824C610.346 327.784 609.098 328.264 607.69 328.264ZM625.075 354.856C625.075 352.36 625.523 350.152 626.419 348.232C627.315 346.248 628.563 344.584 630.163 343.24C631.827 341.896 633.779 340.904 636.019 340.264C638.259 339.56 640.691 339.208 643.315 339.208C644.275 339.208 645.203 339.272 646.099 339.4C646.995 339.528 647.891 339.688 648.787 339.88H668.275V346.12H665.299L657.619 345.064C658.835 346.344 659.763 347.816 660.403 349.48C661.107 351.144 661.459 352.904 661.459 354.76C661.459 357.256 661.011 359.496 660.115 361.48C659.219 363.4 657.971 365.032 656.371 366.376C654.771 367.72 652.851 368.744 650.611 369.448C648.371 370.088 645.939 370.408 643.315 370.408C641.331 370.408 639.603 370.28 638.131 370.024C636.659 370.536 635.635 371.208 635.059 372.04C634.483 372.808 634.195 373.64 634.195 374.536C634.195 376.008 634.675 377 635.635 377.512C636.659 378.024 638.003 378.28 639.667 378.28H651.571C656.563 378.28 660.371 379.432 662.995 381.736C665.683 383.976 667.027 387.048 667.027 390.952C667.027 393.448 666.483 395.688 665.395 397.672C664.307 399.656 662.739 401.352 660.691 402.76C658.707 404.168 656.275 405.224 653.395 405.928C650.515 406.696 647.283 407.08 643.699 407.08C637.171 407.08 631.955 405.896 628.051 403.528C624.211 401.224 622.291 397.8 622.291 393.256C622.291 390.888 623.027 388.904 624.499 387.304C626.035 385.704 628.019 384.488 630.451 383.656C629.171 382.76 628.211 381.832 627.571 380.872C626.931 379.848 626.611 378.504 626.611 376.84C626.611 374.856 627.187 373.16 628.339 371.752C629.555 370.344 631.187 369.224 633.235 368.392C630.675 367.24 628.659 365.576 627.187 363.4C625.779 361.16 625.075 358.312 625.075 354.856ZM635.347 385C632.083 386.472 630.451 388.776 630.451 391.912C630.451 397.544 634.995 400.36 644.083 400.36C646.771 400.36 649.043 400.104 650.899 399.592C652.755 399.08 654.259 398.408 655.411 397.576C656.563 396.744 657.395 395.816 657.907 394.792C658.483 393.768 658.771 392.712 658.771 391.624C658.771 388.936 657.843 387.144 655.987 386.248C654.195 385.416 651.923 385 649.171 385H635.347ZM652.915 355.048C652.915 351.656 652.019 349.16 650.227 347.56C648.499 345.96 646.195 345.16 643.315 345.16C640.435 345.16 638.099 345.96 636.307 347.56C634.579 349.16 633.715 351.528 633.715 354.664C633.715 357.992 634.579 360.456 636.307 362.056C638.099 363.592 640.435 364.36 643.315 364.36C646.195 364.36 648.499 363.592 650.227 362.056C652.019 360.52 652.915 358.184 652.915 355.048ZM686.132 385H677.684V339.88H684.308L685.556 346.12C687.796 343.88 690.132 342.184 692.564 341.032C695.06 339.816 697.908 339.208 701.108 339.208C705.716 339.208 709.332 340.52 711.956 343.144C714.58 345.704 715.892 349.288 715.892 353.896V385H707.444V355.144C707.444 352.392 706.708 350.216 705.236 348.616C703.828 346.952 701.652 346.12 698.708 346.12C694.228 346.12 690.036 348.136 686.132 352.168V385ZM753.446 324.52H761.03V362.632H770.534V369.64H761.03V385H753.158V369.64H724.358V364.36L753.446 324.52ZM733.862 362.632H753.158V345.928L753.638 333.832H753.446L748.742 341.992L733.862 362.632ZM790.418 324.52V385H781.586V324.52H790.418ZM812.976 385H804.528V339.88H811.056L812.304 346.12C814.416 344.008 816.688 342.344 819.12 341.128C821.552 339.848 824.464 339.208 827.856 339.208C831.056 339.208 833.68 339.88 835.728 341.224C837.776 342.504 839.312 344.296 840.336 346.6C842.576 344.232 845.04 342.408 847.728 341.128C850.416 339.848 853.392 339.208 856.656 339.208C861.264 339.208 864.72 340.52 867.024 343.144C869.392 345.704 870.576 349.288 870.576 353.896V385H862.128V355.432C862.128 352.424 861.488 350.12 860.208 348.52C858.928 346.92 856.816 346.12 853.872 346.12C849.52 346.12 845.456 348.072 841.68 351.976C841.744 352.296 841.776 352.616 841.776 352.936C841.776 353.256 841.776 353.576 841.776 353.896V385H833.328V355.432C833.328 352.424 832.688 350.12 831.408 348.52C830.128 346.92 828.016 346.12 825.072 346.12C820.72 346.12 816.688 348.168 812.976 352.264V385ZM902.373 385.864C900.325 385.864 898.341 385.576 896.421 385C894.565 384.424 892.965 383.656 891.621 382.696V407.08H883.269V339.208H890.277L891.525 345.064C893.253 343.464 895.205 342.088 897.381 340.936C899.557 339.784 902.117 339.208 905.061 339.208C911.077 339.208 915.813 341.128 919.269 344.968C922.725 348.808 924.453 354.312 924.453 361.48C924.453 365.704 923.813 369.352 922.533 372.424C921.317 375.496 919.653 378.024 917.541 380.008C915.493 381.992 913.125 383.464 910.437 384.424C907.813 385.384 905.125 385.864 902.373 385.864ZM903.237 346.12C900.549 346.12 898.213 346.792 896.229 348.136C894.245 349.416 892.709 350.728 891.621 352.072V376.168C893.093 377.256 894.661 378.056 896.325 378.568C897.989 379.08 899.653 379.336 901.317 379.336C903.045 379.336 904.773 379.048 906.501 378.472C908.229 377.832 909.765 376.808 911.109 375.4C912.453 373.992 913.541 372.168 914.373 369.928C915.205 367.688 915.621 364.936 915.621 361.672C915.621 356.872 914.597 353.096 912.549 350.344C910.565 347.528 907.461 346.12 903.237 346.12ZM935.133 343.912C936.669 343.144 938.109 342.472 939.453 341.896C940.797 341.256 942.141 340.744 943.485 340.36C944.829 339.976 946.205 339.688 947.613 339.496C949.021 339.304 950.557 339.208 952.221 339.208C954.717 339.208 956.989 339.496 959.037 340.072C961.149 340.584 962.941 341.48 964.413 342.76C965.949 344.04 967.133 345.736 967.965 347.848C968.797 349.896 969.213 352.488 969.213 355.624V385H962.205L961.149 380.008H960.957C958.973 382.12 956.797 383.624 954.429 384.52C952.061 385.416 949.437 385.864 946.557 385.864C944.381 385.864 942.365 385.576 940.509 385C938.717 384.36 937.149 383.496 935.805 382.408C934.461 381.256 933.405 379.88 932.637 378.28C931.933 376.68 931.581 374.888 931.581 372.904C931.581 368.168 933.437 364.584 937.149 362.152C940.925 359.656 945.885 358.408 952.029 358.408H960.669V354.568C960.669 351.304 959.837 349.096 958.173 347.944C956.509 346.728 954.269 346.12 951.453 346.12C949.789 346.12 947.869 346.408 945.693 346.984C943.581 347.496 941.149 348.52 938.397 350.056L935.133 343.912ZM960.765 364.168L953.661 364.36C948.861 364.488 945.437 365.352 943.389 366.952C941.405 368.488 940.413 370.376 940.413 372.616C940.413 373.96 940.637 375.112 941.085 376.072C941.533 376.968 942.109 377.672 942.813 378.184C943.581 378.696 944.445 379.08 945.405 379.336C946.429 379.528 947.485 379.624 948.573 379.624C950.685 379.624 952.829 379.144 955.005 378.184C957.181 377.16 959.101 375.56 960.765 373.384V364.168ZM1003.03 379.336C1005.08 379.336 1006.87 379.112 1008.41 378.664C1009.94 378.216 1011.45 377.64 1012.92 376.936L1014.74 383.272C1011.29 385 1007.16 385.864 1002.36 385.864C999.094 385.864 996.022 385.384 993.142 384.424C990.326 383.464 987.83 382.024 985.654 380.104C983.542 378.12 981.878 375.688 980.662 372.808C979.446 369.864 978.838 366.44 978.838 362.536C978.838 358.952 979.414 355.72 980.566 352.84C981.718 349.96 983.318 347.528 985.366 345.544C987.414 343.496 989.878 341.928 992.758 340.84C995.638 339.752 998.806 339.208 1002.26 339.208C1004.25 339.208 1006.17 339.368 1008.02 339.688C1009.94 339.944 1012.12 340.616 1014.55 341.704L1012.63 348.136C1009.69 346.472 1006.52 345.64 1003.13 345.64C998.454 345.64 994.678 347.112 991.798 350.056C988.918 352.936 987.478 357 987.478 362.248C987.478 365.512 987.926 368.232 988.822 370.408C989.718 372.584 990.902 374.344 992.374 375.688C993.846 376.968 995.51 377.896 997.366 378.472C999.222 379.048 1001.11 379.336 1003.03 379.336ZM1048.27 346.216H1035.02V372.424C1035.02 374.664 1035.57 376.168 1036.66 376.936C1037.81 377.704 1039.28 378.088 1041.07 378.088C1042.35 378.088 1043.76 377.96 1045.3 377.704C1046.83 377.384 1048.18 377.032 1049.33 376.648L1050.67 383.08C1049.39 383.592 1047.76 384.04 1045.78 384.424C1043.79 384.808 1041.71 385 1039.54 385C1035.06 385 1031.79 384.04 1029.74 382.12C1027.7 380.136 1026.67 377.288 1026.67 373.576V346.216H1019.95V339.88H1026.67V325.48H1035.02V339.88H1048.27V346.216Z" fill="#836A2F"/>
<path d="M346.64 595.984L344.72 607.952H354.064L355.984 595.984H346.64ZM358.8 578.64H363.088L360.976 591.632H367.504V595.984H360.336L358.352 607.952H365.328V612.304H357.776L355.536 626H351.184L353.36 612.304H344.08L341.84 626H337.552L339.664 612.304H332.24V607.952H340.432L342.352 595.984H334.48V591.632H343.12L345.168 578.64H349.456L347.344 591.696H356.752L358.8 578.64ZM405.955 585.104C408.686 585.104 411.203 585.552 413.507 586.448C415.811 587.301 417.795 588.603 419.459 590.352C421.166 592.059 422.488 594.213 423.427 596.816C424.366 599.376 424.835 602.384 424.835 605.84C424.835 609.211 424.344 612.197 423.363 614.8C422.382 617.36 421.038 619.515 419.331 621.264C417.624 623.013 415.598 624.336 413.251 625.232C410.947 626.128 408.43 626.576 405.699 626.576C402.968 626.576 400.451 626.149 398.147 625.296C395.843 624.4 393.838 623.099 392.131 621.392C390.467 619.643 389.166 617.488 388.227 614.928C387.288 612.325 386.819 609.296 386.819 605.84C386.819 602.469 387.31 599.504 388.291 596.944C389.272 594.341 390.616 592.165 392.323 590.416C394.03 588.667 396.035 587.344 398.339 586.448C400.686 585.552 403.224 585.104 405.955 585.104ZM393.219 605.84C393.219 608.571 393.539 610.939 394.179 612.944C394.862 614.949 395.779 616.613 396.931 617.936C398.083 619.259 399.427 620.24 400.963 620.88C402.542 621.52 404.206 621.84 405.955 621.84C407.704 621.84 409.326 621.52 410.819 620.88C412.355 620.24 413.678 619.259 414.787 617.936C415.939 616.613 416.835 614.949 417.475 612.944C418.115 610.939 418.435 608.571 418.435 605.84C418.435 603.024 418.094 600.613 417.411 598.608C416.771 596.603 415.875 594.96 414.723 593.68C413.571 592.357 412.206 591.397 410.627 590.8C409.091 590.16 407.448 589.84 405.699 589.84C403.95 589.84 402.307 590.16 400.771 590.8C399.235 591.44 397.912 592.421 396.803 593.744C395.694 595.067 394.819 596.731 394.179 598.736C393.539 600.741 393.219 603.109 393.219 605.84ZM444.582 626.576C443.217 626.576 441.894 626.384 440.614 626C439.377 625.616 438.31 625.104 437.414 624.464V640.72H431.846V595.472H436.518L437.35 599.376C438.502 598.309 439.803 597.392 441.254 596.624C442.705 595.856 444.411 595.472 446.374 595.472C450.385 595.472 453.542 596.752 455.846 599.312C458.15 601.872 459.302 605.541 459.302 610.32C459.302 613.136 458.875 615.568 458.022 617.616C457.211 619.664 456.102 621.349 454.694 622.672C453.329 623.995 451.75 624.976 449.958 625.616C448.209 626.256 446.417 626.576 444.582 626.576ZM445.158 600.08C443.366 600.08 441.809 600.528 440.486 601.424C439.163 602.277 438.139 603.152 437.414 604.048V620.112C438.395 620.837 439.441 621.371 440.55 621.712C441.659 622.053 442.769 622.224 443.878 622.224C445.03 622.224 446.182 622.032 447.334 621.648C448.486 621.221 449.51 620.539 450.406 619.6C451.302 618.661 452.027 617.445 452.582 615.952C453.137 614.459 453.414 612.624 453.414 610.448C453.414 607.248 452.731 604.731 451.366 602.896C450.043 601.019 447.974 600.08 445.158 600.08ZM491.702 611.6H470.134V611.856C470.134 615.184 471.03 617.744 472.822 619.536C474.657 621.328 477.131 622.224 480.246 622.224C481.867 622.224 483.297 622.096 484.534 621.84C485.814 621.584 487.201 621.157 488.694 620.56L489.846 624.72C488.609 625.275 487.137 625.723 485.43 626.064C483.766 626.405 481.974 626.576 480.054 626.576C477.878 626.576 475.83 626.277 473.91 625.68C472.033 625.083 470.369 624.165 468.918 622.928C467.467 621.648 466.315 620.027 465.462 618.064C464.651 616.101 464.246 613.755 464.246 611.024C464.246 608.677 464.587 606.544 465.27 604.624C465.995 602.704 466.998 601.083 468.278 599.76C469.558 598.395 471.094 597.349 472.886 596.624C474.721 595.856 476.769 595.472 479.03 595.472C480.95 595.472 482.678 595.792 484.214 596.432C485.793 597.072 487.137 597.968 488.246 599.12C489.355 600.272 490.209 601.659 490.806 603.28C491.403 604.901 491.702 606.693 491.702 608.656V611.6ZM485.878 607.568C485.878 606.459 485.729 605.435 485.43 604.496C485.174 603.515 484.747 602.661 484.15 601.936C483.595 601.211 482.87 600.635 481.974 600.208C481.078 599.781 479.99 599.568 478.71 599.568C476.363 599.568 474.443 600.315 472.95 601.808C471.499 603.301 470.603 605.264 470.262 607.696L485.878 607.568ZM503.984 626H498.352V595.92H502.768L503.6 600.08C505.093 598.587 506.651 597.456 508.272 596.688C509.936 595.877 511.835 595.472 513.968 595.472C517.04 595.472 519.451 596.347 521.2 598.096C522.949 599.803 523.824 602.192 523.824 605.264V626H518.192V606.096C518.192 604.261 517.701 602.811 516.72 601.744C515.781 600.635 514.331 600.08 512.368 600.08C509.381 600.08 506.587 601.424 503.984 604.112V626ZM546.428 585.68C549.286 585.68 551.932 586.085 554.364 586.896C556.796 587.707 558.886 588.923 560.636 590.544C562.428 592.123 563.814 594.128 564.796 596.56C565.82 598.949 566.332 601.744 566.332 604.944C566.332 608.827 565.734 612.112 564.54 614.8C563.345 617.488 561.724 619.664 559.676 621.328C557.67 622.992 555.324 624.187 552.636 624.912C549.99 625.637 547.174 626 544.188 626H533.308V585.68H546.428ZM539.196 621.136H543.612C545.66 621.136 547.665 620.923 549.628 620.496C551.59 620.027 553.318 619.195 554.812 618C556.348 616.763 557.585 615.099 558.524 613.008C559.462 610.917 559.932 608.229 559.932 604.944C559.932 602.64 559.59 600.592 558.908 598.8C558.225 597.008 557.244 595.515 555.964 594.32C554.684 593.083 553.126 592.144 551.292 591.504C549.5 590.864 547.494 590.544 545.276 590.544H539.196V621.136ZM573.61 598.608C574.634 598.096 575.594 597.648 576.49 597.264C577.386 596.837 578.282 596.496 579.178 596.24C580.074 595.984 580.991 595.792 581.93 595.664C582.868 595.536 583.892 595.472 585.002 595.472C586.666 595.472 588.18 595.664 589.546 596.048C590.954 596.389 592.148 596.987 593.13 597.84C594.154 598.693 594.943 599.824 595.498 601.232C596.052 602.597 596.33 604.325 596.33 606.416V626H591.658L590.954 622.672H590.826C589.503 624.08 588.052 625.083 586.474 625.68C584.895 626.277 583.146 626.576 581.226 626.576C579.775 626.576 578.431 626.384 577.194 626C575.999 625.573 574.954 624.997 574.058 624.272C573.162 623.504 572.458 622.587 571.946 621.52C571.476 620.453 571.242 619.259 571.242 617.936C571.242 614.779 572.479 612.389 574.954 610.768C577.471 609.104 580.778 608.272 584.874 608.272H590.634V605.712C590.634 603.536 590.079 602.064 588.97 601.296C587.86 600.485 586.367 600.08 584.49 600.08C583.38 600.08 582.1 600.272 580.65 600.656C579.242 600.997 577.62 601.68 575.786 602.704L573.61 598.608ZM590.698 612.112L585.962 612.24C582.762 612.325 580.479 612.901 579.114 613.968C577.791 614.992 577.13 616.251 577.13 617.744C577.13 618.64 577.279 619.408 577.578 620.048C577.876 620.645 578.26 621.115 578.73 621.456C579.242 621.797 579.818 622.053 580.458 622.224C581.14 622.352 581.844 622.416 582.57 622.416C583.978 622.416 585.407 622.096 586.858 621.456C588.308 620.773 589.588 619.707 590.698 618.256V612.112ZM620.723 600.144H611.891V617.616C611.891 619.109 612.253 620.112 612.979 620.624C613.747 621.136 614.728 621.392 615.923 621.392C616.776 621.392 617.715 621.307 618.739 621.136C619.763 620.923 620.659 620.688 621.427 620.432L622.323 624.72C621.469 625.061 620.381 625.36 619.059 625.616C617.736 625.872 616.349 626 614.899 626C611.912 626 609.736 625.36 608.371 624.08C607.005 622.757 606.323 620.859 606.323 618.384V600.144H601.843V595.92H606.323V586.32H611.891V595.92H620.723V600.144ZM628.547 598.608C629.571 598.096 630.531 597.648 631.427 597.264C632.323 596.837 633.219 596.496 634.115 596.24C635.011 595.984 635.928 595.792 636.867 595.664C637.806 595.536 638.83 595.472 639.939 595.472C641.603 595.472 643.118 595.664 644.483 596.048C645.891 596.389 647.086 596.987 648.067 597.84C649.091 598.693 649.88 599.824 650.435 601.232C650.99 602.597 651.267 604.325 651.267 606.416V626H646.595L645.891 622.672H645.763C644.44 624.08 642.99 625.083 641.411 625.68C639.832 626.277 638.083 626.576 636.163 626.576C634.712 626.576 633.368 626.384 632.131 626C630.936 625.573 629.891 624.997 628.995 624.272C628.099 623.504 627.395 622.587 626.883 621.52C626.414 620.453 626.179 619.259 626.179 617.936C626.179 614.779 627.416 612.389 629.891 610.768C632.408 609.104 635.715 608.272 639.811 608.272H645.571V605.712C645.571 603.536 645.016 602.064 643.907 601.296C642.798 600.485 641.304 600.08 639.427 600.08C638.318 600.08 637.038 600.272 635.587 600.656C634.179 600.997 632.558 601.68 630.723 602.704L628.547 598.608ZM645.635 612.112L640.899 612.24C637.699 612.325 635.416 612.901 634.051 613.968C632.728 614.992 632.067 616.251 632.067 617.744C632.067 618.64 632.216 619.408 632.515 620.048C632.814 620.645 633.198 621.115 633.667 621.456C634.179 621.797 634.755 622.053 635.395 622.224C636.078 622.352 636.782 622.416 637.507 622.416C638.915 622.416 640.344 622.096 641.795 621.456C643.246 620.773 644.526 619.707 645.635 618.256V612.112Z" fill="#DEC280"/>
<path d="M119.828 134.984L117.908 146.952H127.252L129.172 134.984H119.828ZM131.988 117.64H136.276L134.164 130.632H140.692V134.984H133.524L131.54 146.952H138.516V151.304H130.964L128.724 165H124.372L126.548 151.304H117.268L115.028 165H110.74L112.852 151.304H105.428V146.952H113.62L115.54 134.984H107.668V130.632H116.308L118.356 117.64H122.644L120.532 130.696H129.94L131.988 117.64ZM171.675 124.68V129.544H153.883V142.6H170.267V147.4H153.883V165H147.995V124.68H171.675ZM176.224 165V134.92H180.448L181.408 140.936C182.133 139.016 183.328 137.459 184.992 136.264C186.656 135.069 188.576 134.472 190.752 134.472C191.861 134.472 192.779 134.557 193.504 134.728C194.229 134.899 194.891 135.112 195.488 135.368L194.4 140.296C193.888 140.04 193.312 139.827 192.672 139.656C192.075 139.485 191.349 139.4 190.496 139.4C189.259 139.4 188.107 139.613 187.04 140.04C186.016 140.467 185.099 141.107 184.288 141.96C183.52 142.813 182.901 143.88 182.432 145.16C182.005 146.397 181.792 147.827 181.792 149.448V165H176.224ZM224.202 150.6H202.634V150.856C202.634 154.184 203.53 156.744 205.322 158.536C207.157 160.328 209.631 161.224 212.746 161.224C214.367 161.224 215.797 161.096 217.034 160.84C218.314 160.584 219.701 160.157 221.194 159.56L222.346 163.72C221.109 164.275 219.637 164.723 217.93 165.064C216.266 165.405 214.474 165.576 212.554 165.576C210.378 165.576 208.33 165.277 206.41 164.68C204.533 164.083 202.869 163.165 201.418 161.928C199.967 160.648 198.815 159.027 197.962 157.064C197.151 155.101 196.746 152.755 196.746 150.024C196.746 147.677 197.087 145.544 197.77 143.624C198.495 141.704 199.498 140.083 200.778 138.76C202.058 137.395 203.594 136.349 205.386 135.624C207.221 134.856 209.269 134.472 211.53 134.472C213.45 134.472 215.178 134.792 216.714 135.432C218.293 136.072 219.637 136.968 220.746 138.12C221.855 139.272 222.709 140.659 223.306 142.28C223.903 143.901 224.202 145.693 224.202 147.656V150.6ZM218.378 146.568C218.378 145.459 218.229 144.435 217.93 143.496C217.674 142.515 217.247 141.661 216.65 140.936C216.095 140.211 215.37 139.635 214.474 139.208C213.578 138.781 212.49 138.568 211.21 138.568C208.863 138.568 206.943 139.315 205.45 140.808C203.999 142.301 203.103 144.264 202.762 146.696L218.378 146.568ZM256.452 150.6H234.884V150.856C234.884 154.184 235.78 156.744 237.572 158.536C239.407 160.328 241.881 161.224 244.996 161.224C246.617 161.224 248.047 161.096 249.284 160.84C250.564 160.584 251.951 160.157 253.444 159.56L254.596 163.72C253.359 164.275 251.887 164.723 250.18 165.064C248.516 165.405 246.724 165.576 244.804 165.576C242.628 165.576 240.58 165.277 238.66 164.68C236.783 164.083 235.119 163.165 233.668 161.928C232.217 160.648 231.065 159.027 230.212 157.064C229.401 155.101 228.996 152.755 228.996 150.024C228.996 147.677 229.337 145.544 230.02 143.624C230.745 141.704 231.748 140.083 233.028 138.76C234.308 137.395 235.844 136.349 237.636 135.624C239.471 134.856 241.519 134.472 243.78 134.472C245.7 134.472 247.428 134.792 248.964 135.432C250.543 136.072 251.887 136.968 252.996 138.12C254.105 139.272 254.959 140.659 255.556 142.28C256.153 143.901 256.452 145.693 256.452 147.656V150.6ZM250.628 146.568C250.628 145.459 250.479 144.435 250.18 143.496C249.924 142.515 249.497 141.661 248.9 140.936C248.345 140.211 247.62 139.635 246.724 139.208C245.828 138.781 244.74 138.568 243.46 138.568C241.113 138.568 239.193 139.315 237.7 140.808C236.249 142.301 235.353 144.264 235.012 146.696L250.628 146.568ZM260.67 153.096C260.67 151.517 260.926 150.088 261.438 148.808C261.993 147.528 262.718 146.376 263.614 145.352C264.51 144.328 265.555 143.432 266.75 142.664C267.945 141.896 269.225 141.235 270.59 140.68C269.481 139.443 268.499 138.035 267.646 136.456C266.835 134.835 266.43 133.064 266.43 131.144C266.43 129.736 266.707 128.477 267.262 127.368C267.817 126.259 268.563 125.32 269.502 124.552C270.483 123.741 271.614 123.144 272.894 122.76C274.217 122.333 275.603 122.12 277.054 122.12C278.505 122.12 279.849 122.333 281.086 122.76C282.366 123.187 283.454 123.805 284.35 124.616C285.289 125.384 286.014 126.323 286.526 127.432C287.038 128.541 287.294 129.757 287.294 131.08C287.294 133.341 286.718 135.219 285.566 136.712C284.414 138.205 282.899 139.421 281.022 140.36L278.398 137.224C279.507 136.627 280.382 135.837 281.022 134.856C281.705 133.875 282.046 132.723 282.046 131.4C282.046 129.907 281.555 128.691 280.574 127.752C279.635 126.813 278.419 126.344 276.926 126.344C275.305 126.344 274.046 126.792 273.15 127.688C272.254 128.584 271.806 129.757 271.806 131.208C271.806 133.128 272.339 134.899 273.406 136.52C274.473 138.099 276.009 139.891 278.014 141.896L288.766 152.776C289.491 151.667 290.174 150.387 290.814 148.936C291.454 147.443 292.009 146.013 292.478 144.648L297.086 146.504C296.403 148.424 295.635 150.216 294.782 151.88C293.929 153.544 293.075 155.016 292.222 156.296L300.862 165H293.95L289.086 160.008C288.489 160.691 287.742 161.373 286.846 162.056C285.993 162.696 284.99 163.272 283.838 163.784C282.686 164.296 281.385 164.701 279.934 165C278.526 165.341 276.969 165.512 275.262 165.512C273.043 165.512 271.038 165.213 269.246 164.616C267.454 163.976 265.918 163.101 264.638 161.992C263.358 160.883 262.377 159.581 261.694 158.088C261.011 156.552 260.67 154.888 260.67 153.096ZM266.174 152.968C266.174 155.656 267.049 157.704 268.798 159.112C270.59 160.477 272.958 161.16 275.902 161.16C276.798 161.16 277.715 161.053 278.654 160.84C279.635 160.627 280.574 160.328 281.47 159.944C282.366 159.517 283.177 159.027 283.902 158.472C284.67 157.917 285.31 157.299 285.822 156.616L273.278 143.88C272.339 144.349 271.443 144.883 270.59 145.48C269.737 146.077 268.969 146.76 268.286 147.528C267.646 148.253 267.134 149.085 266.75 150.024C266.366 150.92 266.174 151.901 266.174 152.968ZM322.955 124.104C325.686 124.104 328.203 124.552 330.507 125.448C332.811 126.301 334.795 127.603 336.459 129.352C338.166 131.059 339.488 133.213 340.427 135.816C341.366 138.376 341.835 141.384 341.835 144.84C341.835 148.211 341.344 151.197 340.363 153.8C339.382 156.36 338.038 158.515 336.331 160.264C334.624 162.013 332.598 163.336 330.251 164.232C327.947 165.128 325.43 165.576 322.699 165.576C319.968 165.576 317.451 165.149 315.147 164.296C312.843 163.4 310.838 162.099 309.131 160.392C307.467 158.643 306.166 156.488 305.227 153.928C304.288 151.325 303.819 148.296 303.819 144.84C303.819 141.469 304.31 138.504 305.291 135.944C306.272 133.341 307.616 131.165 309.323 129.416C311.03 127.667 313.035 126.344 315.339 125.448C317.686 124.552 320.224 124.104 322.955 124.104ZM310.219 144.84C310.219 147.571 310.539 149.939 311.179 151.944C311.862 153.949 312.779 155.613 313.931 156.936C315.083 158.259 316.427 159.24 317.963 159.88C319.542 160.52 321.206 160.84 322.955 160.84C324.704 160.84 326.326 160.52 327.819 159.88C329.355 159.24 330.678 158.259 331.787 156.936C332.939 155.613 333.835 153.949 334.475 151.944C335.115 149.939 335.435 147.571 335.435 144.84C335.435 142.024 335.094 139.613 334.411 137.608C333.771 135.603 332.875 133.96 331.723 132.68C330.571 131.357 329.206 130.397 327.627 129.8C326.091 129.16 324.448 128.84 322.699 128.84C320.95 128.84 319.307 129.16 317.771 129.8C316.235 130.44 314.912 131.421 313.803 132.744C312.694 134.067 311.819 135.731 311.179 137.736C310.539 139.741 310.219 142.109 310.219 144.84ZM361.582 165.576C360.217 165.576 358.894 165.384 357.614 165C356.377 164.616 355.31 164.104 354.414 163.464V179.72H348.846V134.472H353.518L354.35 138.376C355.502 137.309 356.803 136.392 358.254 135.624C359.705 134.856 361.411 134.472 363.374 134.472C367.385 134.472 370.542 135.752 372.846 138.312C375.15 140.872 376.302 144.541 376.302 149.32C376.302 152.136 375.875 154.568 375.022 156.616C374.211 158.664 373.102 160.349 371.694 161.672C370.329 162.995 368.75 163.976 366.958 164.616C365.209 165.256 363.417 165.576 361.582 165.576ZM362.158 139.08C360.366 139.08 358.809 139.528 357.486 140.424C356.163 141.277 355.139 142.152 354.414 143.048V159.112C355.395 159.837 356.441 160.371 357.55 160.712C358.659 161.053 359.769 161.224 360.878 161.224C362.03 161.224 363.182 161.032 364.334 160.648C365.486 160.221 366.51 159.539 367.406 158.6C368.302 157.661 369.027 156.445 369.582 154.952C370.137 153.459 370.414 151.624 370.414 149.448C370.414 146.248 369.731 143.731 368.366 141.896C367.043 140.019 364.974 139.08 362.158 139.08ZM408.702 150.6H387.134V150.856C387.134 154.184 388.03 156.744 389.822 158.536C391.657 160.328 394.131 161.224 397.246 161.224C398.867 161.224 400.297 161.096 401.534 160.84C402.814 160.584 404.201 160.157 405.694 159.56L406.846 163.72C405.609 164.275 404.137 164.723 402.43 165.064C400.766 165.405 398.974 165.576 397.054 165.576C394.878 165.576 392.83 165.277 390.91 164.68C389.033 164.083 387.369 163.165 385.918 161.928C384.467 160.648 383.315 159.027 382.462 157.064C381.651 155.101 381.246 152.755 381.246 150.024C381.246 147.677 381.587 145.544 382.27 143.624C382.995 141.704 383.998 140.083 385.278 138.76C386.558 137.395 388.094 136.349 389.886 135.624C391.721 134.856 393.769 134.472 396.03 134.472C397.95 134.472 399.678 134.792 401.214 135.432C402.793 136.072 404.137 136.968 405.246 138.12C406.355 139.272 407.209 140.659 407.806 142.28C408.403 143.901 408.702 145.693 408.702 147.656V150.6ZM402.878 146.568C402.878 145.459 402.729 144.435 402.43 143.496C402.174 142.515 401.747 141.661 401.15 140.936C400.595 140.211 399.87 139.635 398.974 139.208C398.078 138.781 396.99 138.568 395.71 138.568C393.363 138.568 391.443 139.315 389.95 140.808C388.499 142.301 387.603 144.264 387.262 146.696L402.878 146.568ZM420.984 165H415.352V134.92H419.768L420.6 139.08C422.093 137.587 423.651 136.456 425.272 135.688C426.936 134.877 428.835 134.472 430.968 134.472C434.04 134.472 436.451 135.347 438.2 137.096C439.949 138.803 440.824 141.192 440.824 144.264V165H435.192V145.096C435.192 143.261 434.701 141.811 433.72 140.744C432.781 139.635 431.331 139.08 429.368 139.08C426.381 139.08 423.587 140.424 420.984 143.112V165ZM461.635 124.104C463.598 124.104 465.497 124.275 467.332 124.616C469.166 124.915 470.98 125.491 472.772 126.344L471.364 131.208C469.529 130.355 467.865 129.757 466.372 129.416C464.921 129.032 463.428 128.84 461.892 128.84C459.46 128.84 457.54 129.373 456.132 130.44C454.724 131.507 454.02 133 454.02 134.92C454.02 136.541 454.532 137.843 455.556 138.824C456.622 139.805 458.35 140.659 460.74 141.384L464.772 142.664C468.441 143.816 471.022 145.395 472.516 147.4C474.052 149.363 474.82 151.581 474.82 154.056C474.82 155.805 474.457 157.405 473.732 158.856C473.049 160.264 472.068 161.48 470.788 162.504C469.55 163.485 468.078 164.253 466.372 164.808C464.665 165.32 462.788 165.576 460.74 165.576C458.692 165.576 456.601 165.384 454.468 165C452.377 164.659 450.286 163.997 448.196 163.016L449.604 158.216C451.438 159.112 453.23 159.773 454.98 160.2C456.729 160.627 458.564 160.84 460.484 160.84C462.788 160.84 464.75 160.307 466.372 159.24C467.993 158.173 468.804 156.595 468.804 154.504C468.804 153.736 468.676 153.032 468.42 152.392C468.206 151.709 467.801 151.069 467.204 150.472C466.649 149.875 465.881 149.32 464.9 148.808C463.918 148.296 462.681 147.805 461.188 147.336L457.156 146.056C454.212 145.117 451.95 143.837 450.372 142.216C448.793 140.595 448.004 138.397 448.004 135.624C448.004 132.083 449.156 129.288 451.46 127.24C453.806 125.149 457.198 124.104 461.635 124.104ZM509.436 149.64C509.436 152.157 509.052 154.419 508.284 156.424C507.516 158.387 506.449 160.051 505.084 161.416C503.761 162.781 502.204 163.827 500.412 164.552C498.62 165.235 496.679 165.576 494.588 165.576C492.497 165.576 490.556 165.256 488.764 164.616C487.015 163.933 485.479 162.952 484.156 161.672C482.876 160.349 481.852 158.749 481.084 156.872C480.359 154.952 479.996 152.755 479.996 150.28C479.996 147.763 480.38 145.523 481.148 143.56C481.916 141.597 482.961 139.955 484.284 138.632C485.649 137.267 487.228 136.243 489.02 135.56C490.812 134.835 492.753 134.472 494.844 134.472C496.935 134.472 498.855 134.792 500.604 135.432C502.396 136.072 503.932 137.032 505.212 138.312C506.535 139.592 507.559 141.192 508.284 143.112C509.052 144.989 509.436 147.165 509.436 149.64ZM503.548 149.96C503.548 147.955 503.292 146.248 502.78 144.84C502.268 143.432 501.585 142.28 500.732 141.384C499.921 140.488 498.983 139.848 497.916 139.464C496.849 139.037 495.761 138.824 494.652 138.824C493.543 138.824 492.455 138.995 491.388 139.336C490.321 139.677 489.383 140.275 488.572 141.128C487.761 141.981 487.1 143.133 486.588 144.584C486.119 145.992 485.884 147.784 485.884 149.96C485.884 151.965 486.14 153.693 486.652 155.144C487.164 156.552 487.825 157.704 488.636 158.6C489.489 159.496 490.449 160.157 491.516 160.584C492.583 161.011 493.671 161.224 494.78 161.224C495.889 161.224 496.977 161.053 498.044 160.712C499.111 160.328 500.049 159.709 500.86 158.856C501.671 157.96 502.311 156.808 502.78 155.4C503.292 153.949 503.548 152.136 503.548 149.96ZM527.618 119.24C528.812 119.24 530.05 119.411 531.33 119.752C532.652 120.093 533.826 120.52 534.85 121.032L533.698 124.936C532.844 124.595 532.034 124.339 531.266 124.168C530.498 123.955 529.687 123.848 528.833 123.848C526.786 123.848 525.314 124.424 524.418 125.576C523.564 126.728 523.138 128.691 523.138 131.464V134.92H532.29V139.144H523.138V165H517.57V139.144H513.154V134.92H517.57V129.608C517.57 126.28 518.423 123.72 520.13 121.928C521.879 120.136 524.375 119.24 527.618 119.24ZM552.723 139.144H543.891V156.616C543.891 158.109 544.253 159.112 544.979 159.624C545.747 160.136 546.728 160.392 547.923 160.392C548.776 160.392 549.715 160.307 550.739 160.136C551.763 159.923 552.659 159.688 553.427 159.432L554.323 163.72C553.469 164.061 552.381 164.36 551.059 164.616C549.736 164.872 548.349 165 546.899 165C543.912 165 541.736 164.36 540.371 163.08C539.005 161.757 538.323 159.859 538.323 157.384V139.144H533.843V134.92H538.323V125.32H543.891V134.92H552.723V139.144ZM557.204 134.92H563.22L568.34 153.864L569.492 160.584H569.748L571.156 153.864L576.34 134.92H582.42L587.732 153.864L589.076 160.584H589.332L590.74 153.864L595.732 134.92H601.492L592.34 165H585.94L580.82 146.568L579.348 139.144L577.812 146.568L572.564 165H566.484L557.204 134.92ZM606.735 137.608C607.759 137.096 608.719 136.648 609.615 136.264C610.511 135.837 611.407 135.496 612.303 135.24C613.199 134.984 614.116 134.792 615.055 134.664C615.993 134.536 617.017 134.472 618.127 134.472C619.791 134.472 621.305 134.664 622.671 135.048C624.079 135.389 625.273 135.987 626.255 136.84C627.279 137.693 628.068 138.824 628.623 140.232C629.177 141.597 629.455 143.325 629.455 145.416V165H624.783L624.079 161.672H623.951C622.628 163.08 621.177 164.083 619.599 164.68C618.02 165.277 616.271 165.576 614.351 165.576C612.9 165.576 611.556 165.384 610.319 165C609.124 164.573 608.079 163.997 607.183 163.272C606.287 162.504 605.583 161.587 605.071 160.52C604.601 159.453 604.367 158.259 604.367 156.936C604.367 153.779 605.604 151.389 608.079 149.768C610.596 148.104 613.903 147.272 617.999 147.272H623.759V144.712C623.759 142.536 623.204 141.064 622.095 140.296C620.985 139.485 619.492 139.08 617.615 139.08C616.505 139.08 615.225 139.272 613.775 139.656C612.367 139.997 610.745 140.68 608.911 141.704L606.735 137.608ZM623.823 151.112L619.087 151.24C615.887 151.325 613.604 151.901 612.239 152.968C610.916 153.992 610.255 155.251 610.255 156.744C610.255 157.64 610.404 158.408 610.703 159.048C611.001 159.645 611.385 160.115 611.855 160.456C612.367 160.797 612.943 161.053 613.583 161.224C614.265 161.352 614.969 161.416 615.695 161.416C617.103 161.416 618.532 161.096 619.983 160.456C621.433 159.773 622.713 158.707 623.823 157.256V151.112ZM637.599 165V134.92H641.823L642.783 140.936C643.508 139.016 644.703 137.459 646.367 136.264C648.031 135.069 649.951 134.472 652.127 134.472C653.236 134.472 654.154 134.557 654.879 134.728C655.604 134.899 656.266 135.112 656.863 135.368L655.775 140.296C655.263 140.04 654.687 139.827 654.047 139.656C653.45 139.485 652.724 139.4 651.871 139.4C650.634 139.4 649.482 139.613 648.415 140.04C647.391 140.467 646.474 141.107 645.663 141.96C644.895 142.813 644.276 143.88 643.807 145.16C643.38 146.397 643.167 147.827 643.167 149.448V165H637.599ZM685.577 150.6H664.009V150.856C664.009 154.184 664.905 156.744 666.697 158.536C668.532 160.328 671.006 161.224 674.121 161.224C675.742 161.224 677.172 161.096 678.409 160.84C679.689 160.584 681.076 160.157 682.569 159.56L683.721 163.72C682.484 164.275 681.012 164.723 679.305 165.064C677.641 165.405 675.849 165.576 673.929 165.576C671.753 165.576 669.705 165.277 667.785 164.68C665.908 164.083 664.244 163.165 662.793 161.928C661.342 160.648 660.19 159.027 659.337 157.064C658.526 155.101 658.121 152.755 658.121 150.024C658.121 147.677 658.462 145.544 659.145 143.624C659.87 141.704 660.873 140.083 662.153 138.76C663.433 137.395 664.969 136.349 666.761 135.624C668.596 134.856 670.644 134.472 672.905 134.472C674.825 134.472 676.553 134.792 678.089 135.432C679.668 136.072 681.012 136.968 682.121 138.12C683.23 139.272 684.084 140.659 684.681 142.28C685.278 143.901 685.577 145.693 685.577 147.656V150.6ZM679.753 146.568C679.753 145.459 679.604 144.435 679.305 143.496C679.049 142.515 678.622 141.661 678.025 140.936C677.47 140.211 676.745 139.635 675.849 139.208C674.953 138.781 673.865 138.568 672.585 138.568C670.238 138.568 668.318 139.315 666.825 140.808C665.374 142.301 664.478 144.264 664.137 146.696L679.753 146.568Z" fill="#DEC280"/>
<path d="M1107.64 240.984L1105.72 252.952H1115.06L1116.98 240.984H1107.64ZM1119.8 223.64H1124.09L1121.98 236.632H1128.5V240.984H1121.34L1119.35 252.952H1126.33V257.304H1118.78L1116.54 271H1112.18L1114.36 257.304H1105.08L1102.84 271H1098.55L1100.66 257.304H1093.24V252.952H1101.43L1103.35 240.984H1095.48V236.632H1104.12L1106.17 223.64H1110.46L1108.34 236.696H1117.75L1119.8 223.64ZM1173.68 230.68V235.544H1155.88V248.6H1172.27V253.4H1155.88V271H1150V230.68H1173.68ZM1197.71 230.104C1200.44 230.104 1202.95 230.552 1205.26 231.448C1207.56 232.301 1209.55 233.603 1211.21 235.352C1212.92 237.059 1214.24 239.213 1215.18 241.816C1216.12 244.376 1216.59 247.384 1216.59 250.84C1216.59 254.211 1216.09 257.197 1215.11 259.8C1214.13 262.36 1212.79 264.515 1211.08 266.264C1209.37 268.013 1207.35 269.336 1205 270.232C1202.7 271.128 1200.18 271.576 1197.45 271.576C1194.72 271.576 1192.2 271.149 1189.9 270.296C1187.59 269.4 1185.59 268.099 1183.88 266.392C1182.22 264.643 1180.92 262.488 1179.98 259.928C1179.04 257.325 1178.57 254.296 1178.57 250.84C1178.57 247.469 1179.06 244.504 1180.04 241.944C1181.02 239.341 1182.37 237.165 1184.07 235.416C1185.78 233.667 1187.79 232.344 1190.09 231.448C1192.44 230.552 1194.97 230.104 1197.71 230.104ZM1184.97 250.84C1184.97 253.571 1185.29 255.939 1185.93 257.944C1186.61 259.949 1187.53 261.613 1188.68 262.936C1189.83 264.259 1191.18 265.24 1192.71 265.88C1194.29 266.52 1195.96 266.84 1197.71 266.84C1199.45 266.84 1201.08 266.52 1202.57 265.88C1204.11 265.24 1205.43 264.259 1206.54 262.936C1207.69 261.613 1208.59 259.949 1209.23 257.944C1209.87 255.939 1210.19 253.571 1210.19 250.84C1210.19 248.024 1209.84 245.613 1209.16 243.608C1208.52 241.603 1207.63 239.96 1206.47 238.68C1205.32 237.357 1203.96 236.397 1202.38 235.8C1200.84 235.16 1199.2 234.84 1197.45 234.84C1195.7 234.84 1194.06 235.16 1192.52 235.8C1190.99 236.44 1189.66 237.421 1188.55 238.744C1187.44 240.067 1186.57 241.731 1185.93 243.736C1185.29 245.741 1184.97 248.109 1184.97 250.84ZM1235.95 230.104C1237.91 230.104 1239.81 230.275 1241.64 230.616C1243.48 230.915 1245.29 231.491 1247.08 232.344L1245.68 237.208C1243.84 236.355 1242.18 235.757 1240.68 235.416C1239.23 235.032 1237.74 234.84 1236.2 234.84C1233.77 234.84 1231.85 235.373 1230.44 236.44C1229.04 237.507 1228.33 239 1228.33 240.92C1228.33 242.541 1228.84 243.843 1229.87 244.824C1230.93 245.805 1232.66 246.659 1235.05 247.384L1239.08 248.664C1242.75 249.816 1245.33 251.395 1246.83 253.4C1248.36 255.363 1249.13 257.581 1249.13 260.056C1249.13 261.805 1248.77 263.405 1248.04 264.856C1247.36 266.264 1246.38 267.48 1245.1 268.504C1243.86 269.485 1242.39 270.253 1240.68 270.808C1238.98 271.32 1237.1 271.576 1235.05 271.576C1233 271.576 1230.91 271.384 1228.78 271C1226.69 270.659 1224.6 269.997 1222.51 269.016L1223.92 264.216C1225.75 265.112 1227.54 265.773 1229.29 266.2C1231.04 266.627 1232.88 266.84 1234.8 266.84C1237.1 266.84 1239.06 266.307 1240.68 265.24C1242.31 264.173 1243.12 262.595 1243.12 260.504C1243.12 259.736 1242.99 259.032 1242.73 258.392C1242.52 257.709 1242.11 257.069 1241.52 256.472C1240.96 255.875 1240.19 255.32 1239.21 254.808C1238.23 254.296 1236.99 253.805 1235.5 253.336L1231.47 252.056C1228.52 251.117 1226.26 249.837 1224.68 248.216C1223.11 246.595 1222.32 244.397 1222.32 241.624C1222.32 238.083 1223.47 235.288 1225.77 233.24C1228.12 231.149 1231.51 230.104 1235.95 230.104ZM1267.32 230.104C1269.29 230.104 1271.18 230.275 1273.02 230.616C1274.85 230.915 1276.67 231.491 1278.46 232.344L1277.05 237.208C1275.22 236.355 1273.55 235.757 1272.06 235.416C1270.61 235.032 1269.12 234.84 1267.58 234.84C1265.15 234.84 1263.23 235.373 1261.82 236.44C1260.41 237.507 1259.71 239 1259.71 240.92C1259.71 242.541 1260.22 243.843 1261.24 244.824C1262.31 245.805 1264.04 246.659 1266.43 247.384L1270.46 248.664C1274.13 249.816 1276.71 251.395 1278.2 253.4C1279.74 255.363 1280.51 257.581 1280.51 260.056C1280.51 261.805 1280.14 263.405 1279.42 264.856C1278.74 266.264 1277.76 267.48 1276.48 268.504C1275.24 269.485 1273.77 270.253 1272.06 270.808C1270.35 271.32 1268.48 271.576 1266.43 271.576C1264.38 271.576 1262.29 271.384 1260.16 271C1258.06 270.659 1255.97 269.997 1253.88 269.016L1255.29 264.216C1257.13 265.112 1258.92 265.773 1260.67 266.2C1262.42 266.627 1264.25 266.84 1266.17 266.84C1268.48 266.84 1270.44 266.307 1272.06 265.24C1273.68 264.173 1274.49 262.595 1274.49 260.504C1274.49 259.736 1274.36 259.032 1274.11 258.392C1273.89 257.709 1273.49 257.069 1272.89 256.472C1272.34 255.875 1271.57 255.32 1270.59 254.808C1269.61 254.296 1268.37 253.805 1266.88 253.336L1262.84 252.056C1259.9 251.117 1257.64 249.837 1256.06 248.216C1254.48 246.595 1253.69 244.397 1253.69 241.624C1253.69 238.083 1254.84 235.288 1257.15 233.24C1259.49 231.149 1262.89 230.104 1267.32 230.104Z" fill="#DEC280"/>
</svg>
