<svg xmlns="http://www.w3.org/2000/svg" width="24" height="24" viewBox="0 0 24 24" fill="#1C1C1C">
  <g clip-path="url(#clip0_84_38)">
    <path
      d="M23.9867 12.4999C23.9858 12.1594 23.9128 11.8229 23.7725 11.5127C23.6322 11.2024 23.4278 10.9254 23.1727 10.6999L11.9937 0.860897C11.7049 0.624506 11.3357 0.509454 10.9637 0.539987C10.5918 0.570521 10.2463 0.744256 9.99991 1.02458C9.75356 1.3049 9.62565 1.66991 9.64315 2.04269C9.66065 2.41546 9.82219 2.76689 10.0937 3.0229L18.7307 10.6229C18.7686 10.6565 18.7954 10.7008 18.8075 10.75C18.8196 10.7991 18.8166 10.8508 18.7987 10.8982C18.7808 10.9456 18.7489 10.9864 18.7073 11.0153C18.6657 11.0442 18.6164 11.0597 18.5657 11.0599H1.45172C1.06981 11.0599 0.703537 11.2116 0.433485 11.4817C0.163433 11.7517 0.0117188 12.118 0.0117188 12.4999C0.0117188 12.8818 0.163433 13.2481 0.433485 13.5181C0.703537 13.7882 1.06981 13.9399 1.45172 13.9399H18.5627C18.6133 13.9404 18.6626 13.9562 18.7041 13.9852C18.7456 14.0142 18.7773 14.055 18.7952 14.1024C18.813 14.1498 18.8161 14.2014 18.8041 14.2506C18.7921 14.2998 18.7654 14.3441 18.7277 14.3779L10.0907 21.9779C9.93967 22.0999 9.81485 22.2512 9.72377 22.4227C9.6327 22.5942 9.57724 22.7823 9.56074 22.9758C9.54424 23.1692 9.56704 23.364 9.62776 23.5485C9.68849 23.7329 9.78588 23.9031 9.91409 24.049C10.0423 24.1948 10.1987 24.3132 10.3738 24.397C10.549 24.4808 10.7392 24.5284 10.9332 24.5368C11.1272 24.5452 11.3209 24.5143 11.5026 24.4459C11.6844 24.3775 11.8504 24.2731 11.9907 24.1389L23.1717 14.2999C23.4271 14.0745 23.6318 13.7976 23.7723 13.4873C23.9127 13.177 23.9858 12.8405 23.9867 12.4999Z" />
  </g>
</svg>