<svg xmlns="http://www.w3.org/2000/svg" width="24" height="24" viewBox="0 0 24 24" fill="#1C1C1C">
  <g clip-path="url(#clip0_84_81)">
    <path
      d="M22.5482 10.561H5.43717C5.38656 10.5605 5.33727 10.5448 5.29578 10.5158C5.2543 10.4868 5.22255 10.4459 5.2047 10.3985C5.18686 10.3511 5.18375 10.2995 5.19579 10.2503C5.20783 10.2012 5.23446 10.1568 5.27217 10.123L13.9092 2.52302C14.1807 2.26701 14.3422 1.91559 14.3597 1.54281C14.3772 1.17003 14.2493 0.805021 14.003 0.524699C13.7566 0.244378 13.4111 0.0706434 13.0391 0.0401096C12.6672 0.00957575 12.2979 0.124628 12.0092 0.361019L0.828174 10.2C0.572798 10.4252 0.368269 10.7022 0.228174 11.0126C0.0880791 11.3229 0.015625 11.6595 0.015625 12C0.015625 12.3405 0.0880791 12.6771 0.228174 12.9875C0.368269 13.2978 0.572798 13.5748 0.828174 13.8L12.0072 23.637C12.2962 23.8704 12.6642 23.9832 13.0344 23.9516C13.4045 23.92 13.7481 23.7466 13.9934 23.4676C14.2387 23.1886 14.3667 22.8256 14.3506 22.4545C14.3346 22.0833 14.1757 21.7328 13.9072 21.476L5.27017 13.876C5.23246 13.8423 5.20583 13.7979 5.19379 13.7487C5.18175 13.6995 5.18486 13.6479 5.2027 13.6005C5.22055 13.5532 5.2523 13.5123 5.29378 13.4833C5.33527 13.4543 5.38456 13.4385 5.43517 13.438H22.5482C22.9234 13.4281 23.2799 13.2721 23.5418 13.0032C23.8037 12.7344 23.9502 12.3739 23.9502 11.9985C23.9502 11.6232 23.8037 11.2627 23.5418 10.9938C23.2799 10.7249 22.9234 10.5689 22.5482 10.559V10.561Z" />
  </g>

</svg>