<svg xmlns="http://www.w3.org/2000/svg" width="198" height="181" viewBox="0 0 198 181" fill="none">
  <path
    d="M2 178.623C22.2182 181.139 78.3617 172.447 111.696 110.279C125.561 84.421 128.722 80.7892 135.323 52.64C137.991 41.2656 141.083 20.0877 132.785 9.21236C127.175 1.85796 94.5333 10.7766 97.2754 15.0896C99.3686 18.3818 108.182 18.8247 111.696 18.9501C124.591 19.41 140.054 18.0761 157.866 15.0896C175.677 12.1031 186.183 6.82081 194.998 6.82081M194.998 6.82081C200.838 6.82081 179.122 0.754299 181.828 2.23192C184.763 3.83484 194.998 6.82081 194.998 6.82081ZM194.998 6.82081C198.68 6.82073 185.742 15.5301 181.828 18.9502"
    stroke="#1C1C1C" stroke-width="3" stroke-linecap="round" />
</svg>